# xmcd
#
# Track frame offsets: 
#        150
#        12836
#        22994
#        33386
#        46985
#        57304
#        69015
#        101260
#        116602
#        130934
#        147105
#        160594
#        175493
#        192681
#        210061
#
# Disc length: 3060 seconds
#
# Revision: 15
# Processed by: cddbd v1.5.2PL0 Copyright (c) Steve Scherf et al.
# Submitted via: ExactAudioCopy v1.0b3
#
DISCID=be0bf20f
DTITLE=THE BEATLES - PAST MASTERS (2009 STEREO REMASTER)
DYEAR=1988
DGENRE=Rock/Rock and Roll
TTITLE0=Day Tripper (2009 Digital Remaster)
TTITLE1=We Can Work It Out (2009 Digital Remaster)
TTITLE2=Paperback Writer (2009 Digital Remaster)
TTITLE3=Rain (2009 Digital Remaster)
TTITLE4=Lady Madonna (2009 Digital Remaster)
TTITLE5=The Inner Light (2009 Digital Remaster)
TTITLE6=Hey Jude (2009 Digital Remaster)
TTITLE7=Revolution (2009 Digital Remaster)
TTITLE8=Get Back (With Billy Preston) (2009 Digital Remaster)
TTITLE9=Don't Let Me Down (With Billy Preston) (2009 Digital Remaster)
TTITLE10=The Ballad Of John And Yoko (2009 Digital Remaster)
TTITLE11=Old Brown Shoe (2009 Digital Remaster)
TTITLE12=Across The Universe (2009 Digital Remaster)
TTITLE13=Let It Be (2009 Digital Remaster)
TTITLE14=You Know My Name (Look Up The Number) (2009 Digital Remaster)
EXTD=
EXTT0=
EXTT1=
EXTT2=
EXTT3=
EXTT4=
EXTT5=
EXTT6=
EXTT7=
EXTT8=
EXTT9=
EXTT10=
EXTT11=
EXTT12=
EXTT13=
EXTT14=
PLAYORDER=
